 <svg width="18" height="19" viewBox="0 0 18 19" fill="none" xmlns="http://www.w3.org/2000/svg">
    <path
      d="M9 18.5C13.9352 18.5 18.0087 14.4265 18.0087 9.5C18.0087 4.5735 13.9265 0.5 8.9913 0.5C4.0648 0.5 0 4.5735 0 9.5C0 14.4265 4.0735 18.5 9 18.5ZM9 16.707C5.00484 16.707 1.81045 13.4952 1.81045 9.5C1.81045 5.50484 5.00484 2.30174 8.9913 2.30174C12.9865 2.30174 16.1983 5.50484 16.207 9.5C16.2157 13.4952 12.9952 16.707 9 16.707ZM9.00871 12.912C10.8975 12.912 12.4207 11.3888 12.4207 9.4913C12.4207 7.61122 10.8975 6.0793 9.00871 6.0793C7.11122 6.0793 5.58801 7.61122 5.58801 9.4913C5.58801 11.3888 7.11122 12.912 9.00871 12.912Z"
      fill="#DC2626"
    />
  </svg>